PathFileType	4	(X/Y/Z)	s04c0303.trc
DataRate	CameraRate	NumFrames	NumMarkers	Units	OrigDataRate	OrigDataStartFrame	OrigNumFrames
200	200	5	50	mm	200	1750	2000
Frame#	Time	racr			lacr			c7			jug			rlel			rdr			llel			ldr			s2			lic			ric			lasi			rasi			rpsi			lpsi			rgt			lgt			rth1			rth2			rth3			rth4			rlfc			rmfc			rsh1			rsh2			rsh3			rsh4			rlmal			rmmal			rcal			rtoe			rmt5			lth1			lth2			lth4			lth3			llfc			lmfc			lsh1			lsh2			lsh3			lsh4			llmal			lmmal			lcal			ltoe			lmt5			SBIKE			LBIKE			RBIKE			
		X1	Y1	Z1	X2	Y2	Z2	X3	Y3	Z3	X4	Y4	Z4	X5	Y5	Z5	X6	Y6	Z6	X7	Y7	Z7	X8	Y8	Z8	X9	Y9	Z9	X10	Y10	Z10	X11	Y11	Z11	X12	Y12	Z12	X13	Y13	Z13	X14	Y14	Z14	X15	Y15	Z15	X16	Y16	Z16	X17	Y17	Z17	X18	Y18	Z18	X19	Y19	Z19	X20	Y20	Z20	X21	Y21	Z21	X22	Y22	Z22	X23	Y23	Z23	X24	Y24	Z24	X25	Y25	Z25	X26	Y26	Z26	X27	Y27	Z27	X28	Y28	Z28	X29	Y29	Z29	X30	Y30	Z30	X31	Y31	Z31	X32	Y32	Z32	X33	Y33	Z33	X34	Y34	Z34	X35	Y35	Z35	X36	Y36	Z36	X37	Y37	Z37	X38	Y38	Z38	X39	Y39	Z39	X40	Y40	Z40	X41	Y41	Z41	X42	Y42	Z42	X43	Y43	Z43	X44	Y44	Z44	X45	Y45	Z45	X46	Y46	Z46	X47	Y47	Z47	X48	Y48	Z48	X49	Y49	Z49	X50	Y50	Z50	
1750	8.7500	446.388956	1433.039845	-124.439632	446.408568	1421.221067	-429.287782	412.146965	1498.274238	-282.849466	436.789436	1353.768692	-278.451848	540.545248	1147.429211	-32.217124	694.367180	904.780675	-117.617427	517.746103	1153.700309	-537.045314	691.529940	900.790772	-475.634762	-81.871648	1157.222632	-301.959832	84.438860	1177.154748	-442.567192	57.710466	1189.166007	-125.517352	125.739508	1130.426723	-395.782382	105.022510	1142.228243	-167.974052	-60.055201	1204.971278	-257.052051	-53.603587	1209.115275	-335.147081	12.832522	1128.878861	-101.888678	44.184107	1072.904406	-472.312049	149.663083	1063.012417	-88.475697	237.918220	1055.448231	-84.866197	309.014092	1008.417414	-77.230711	249.810211	1085.378626	-104.900542	430.142189	926.067629	-94.033624	422.727512	911.867833	-210.379483	349.716715	838.322385	-80.400905	302.637082	762.957026	-102.508053	224.181224	727.496293	-113.000816	325.386520	746.474300	-128.322110	124.435042	616.820368	-135.736311	147.900343	621.049392	-220.167238	46.023178	613.105145	-178.242107	320.502604	490.315417	-165.686420	249.858110	494.110001	-110.491171	82.876356	983.999278	-493.587519	145.537538	923.776065	-497.272572	175.834100	941.764029	-486.287632	169.791000	837.861067	-498.798384	238.274126	692.612609	-474.340604	276.121294	670.917051	-365.244182	220.713497	567.179016	-488.271276	230.821105	482.531543	-469.486604	195.425343	401.496970	-461.576200	262.987939	481.399709	-446.488726	171.082279	256.030077	-448.331242	173.864816	266.210068	-360.363240	96.778702	254.409766	-401.040006	382.867089	155.377425	-419.581525	301.320562	140.111312	-476.669862	-185.419749	928.578282	-286.531907	-17.525951	79.101782	-485.394128	-17.578277	79.290693	-84.709400	
1751	8.7550	446.362576	1433.110420	-124.050486	446.565964	1421.346094	-428.888952	412.101320	1498.281676	-282.119525	436.873383	1353.967409	-278.101061	540.424863	1147.414632	-32.184964	694.307506	904.786990	-117.655922	517.762919	1153.844418	-536.715797	691.511779	900.814557	-475.663225	-81.637858	1157.300116	-301.727561	84.716232	1177.304477	-442.507852	57.920192	1189.097541	-125.263609	126.008259	1130.556215	-395.703066	105.041090	1142.702891	-168.160556	-59.842524	1205.086919	-256.832580	-53.391046	1209.161583	-334.954468	13.116443	1129.584201	-101.517564	44.258884	1073.041354	-472.069620	150.192745	1065.118696	-88.731586	238.539450	1058.614033	-85.342015	310.187349	1012.449932	-77.606017	249.990448	1088.667306	-105.524103	432.476615	931.367266	-94.884863	424.761690	916.857735	-210.976758	353.262860	842.508744	-80.809876	307.207522	766.358136	-102.856278	229.580477	729.572678	-113.620943	330.197598	750.203240	-128.516207	131.236320	617.533142	-135.704316	155.025681	622.058513	-219.691721	52.787822	613.016698	-178.202029	328.519786	492.768796	-165.818728	257.904426	495.985369	-110.684892	82.980893	984.075569	-493.227004	145.380431	923.581553	-496.739904	175.725375	941.439836	-485.685891	169.260018	837.523877	-498.115258	236.672106	691.793737	-473.778650	273.938713	669.699644	-364.594698	217.788341	566.644781	-488.067882	226.824773	481.724199	-469.110113	190.490669	401.103437	-461.297183	258.904940	480.242835	-446.083875	164.538424	255.873275	-448.101462	167.409171	265.888420	-360.177802	90.278458	255.079093	-400.840421	375.145439	152.639031	-419.446627	293.390728	138.404283	-476.554695	-185.393047	928.613784	-286.574051	-17.513119	79.079591	-485.399576	-17.566721	79.311239	-84.703703	
1752	8.7600	446.322406	1433.165305	-123.666069	446.740340	1421.451951	-428.508464	412.210917	1498.389044	-281.753701	436.997065	1354.153595	-277.765187	540.342470	1147.409060	-32.181711	694.254093	904.791423	-117.630531	517.774756	1153.928238	-536.376127	691.478016	900.840150	-475.657273	-81.431301	1157.388458	-301.459680	84.891473	1177.520671	-442.372021	58.183165	1189.229334	-125.149554	126.229714	1130.760316	-395.621884	105.066886	1143.307085	-168.254767	-59.654043	1205.194651	-256.557106	-53.057685	1209.354282	-336.184875	13.380131	1130.268939	-101.171443	44.312024	1073.263089	-471.849050	150.711395	1067.171618	-88.970256	239.109544	1061.618720	-85.834521	311.207172	1016.263014	-78.086148	250.147094	1091.633791	-106.259687	434.535674	936.439569	-95.369167	427.054082	921.848366	-211.375923	356.620908	846.432431	-81.284852	311.657876	769.580398	-103.151525	234.626279	731.554377	-113.877314	334.898400	753.748230	-128.732197	138.181481	617.846178	-135.727879	161.410039	622.666741	-220.060601	59.762746	612.528140	-178.204458	336.710197	494.762561	-166.029105	266.086609	497.491431	-110.793995	83.129424	984.215988	-492.876917	145.313753	923.460731	-496.165135	175.689245	941.222744	-485.080878	168.831844	837.330194	-497.476249	235.289738	691.211715	-473.232298	272.188364	668.528651	-364.056013	214.980396	566.177653	-487.650414	222.960927	481.222383	-468.705443	185.677544	400.997519	-460.976418	255.012292	479.312958	-445.680722	158.005775	256.038448	-447.866046	160.938747	265.948027	-360.006009	83.680555	256.225957	-400.568880	367.281508	150.259133	-419.365465	285.339719	137.110275	-476.502985	-185.343292	928.632658	-286.586537	-17.518949	79.089341	-485.409767	-17.575698	79.295209	-84.696438	
1753	8.7650	446.247265	1433.212445	-123.294686	446.938809	1421.580366	-428.147947	412.298208	1498.530860	-281.413096	437.114407	1354.318322	-277.400426	540.276548	1147.418399	-32.204228	694.226247	904.789252	-117.569981	517.765958	1153.994382	-536.025724	691.657083	901.103713	-475.926884	-81.251200	1157.502640	-301.095472	85.050206	1177.814543	-442.323321	58.467081	1189.392665	-124.978120	126.441251	1130.950472	-395.551949	105.042945	1143.801113	-168.425453	-59.078027	1205.093595	-256.384436	-52.932073	1209.434381	-335.948809	13.615882	1130.826740	-100.833154	44.363405	1073.522863	-471.641005	151.065709	1069.092783	-89.203102	239.530275	1064.507957	-86.270762	311.971959	1019.914618	-78.704552	250.212955	1094.549709	-106.817124	436.415599	941.305313	-95.958358	429.049444	926.582561	-211.975489	359.871959	850.066380	-81.773584	316.140887	772.538738	-103.483228	239.760196	733.256083	-114.045256	339.636267	756.948064	-128.894186	145.172787	617.788179	-135.738011	168.191513	622.801040	-220.162742	67.306513	611.599288	-178.381709	344.956442	496.355252	-166.211058	274.316509	498.524360	-110.940535	83.310497	984.406570	-492.536427	145.306616	923.430343	-495.524230	175.715403	941.091617	-484.433201	168.547318	837.235846	-496.871021	234.135525	690.838223	-472.755549	270.675685	667.641456	-363.608685	212.409474	565.962107	-487.309924	219.246663	480.942370	-468.361483	180.950636	401.208715	-460.740842	251.239449	478.641480	-445.238764	151.376888	256.665709	-447.678686	154.470334	266.392457	-359.847941	77.175368	258.043347	-400.917834	359.322491	148.304617	-419.314888	277.219157	136.173893	-476.384316	-185.215401	928.648974	-286.530951	-17.526607	79.080525	-485.396508	-17.570225	79.309424	-84.693561	
1754	8.7700	446.185210	1433.245822	-122.939124	447.100591	1421.687164	-427.887345	412.364923	1498.653725	-281.038749	437.189603	1354.468745	-277.064317	540.207512	1147.426197	-32.241380	694.212147	904.776612	-117.502721	517.744081	1154.061032	-535.728073	692.362403	901.831058	-476.572627	-81.120236	1157.592457	-300.745713	85.116872	1178.063909	-442.216799	58.698620	1189.489159	-124.802442	126.610683	1131.208819	-395.548545	105.083649	1144.387130	-168.536845	-58.986677	1205.212706	-256.052864	-52.817130	1209.511816	-335.566874	13.795554	1131.303433	-100.498847	44.385631	1073.806759	-471.445503	151.325478	1070.842186	-89.373498	239.789352	1067.134193	-86.675527	312.702099	1023.398585	-78.982683	250.161748	1097.174207	-107.332240	438.082960	945.845656	-96.522153	430.843180	930.963675	-212.511338	362.936157	853.447361	-82.247151	320.438694	775.023648	-103.827046	244.776950	734.524582	-114.279423	344.317938	759.870963	-129.012451	152.248490	617.266158	-135.750616	175.215992	622.554360	-220.093269	73.824262	610.142728	-178.432588	353.363197	497.372182	-166.561118	282.590074	499.139171	-111.080049	83.511473	984.635352	-492.174013	145.384628	923.499210	-494.954511	175.796015	941.107668	-483.838019	168.448522	837.284540	-496.263076	233.330738	690.637350	-472.282482	269.514288	666.999380	-363.210775	210.037329	565.993447	-487.023676	215.724433	480.949420	-468.020908	176.285719	401.704345	-460.486438	247.592636	478.240906	-444.841892	144.525807	257.660634	-447.512473	148.020734	267.225341	-359.703742	70.495014	259.896280	-400.852644	351.314109	146.808097	-419.238139	269.045328	135.605204	-476.263177	-185.200701	928.660151	-286.561943	-17.514660	79.108384	-485.398455	-17.579411	79.313391	-84.690171	
